<?xml version="1.0" encoding="UTF-8"?>
<svg xmlns="http://www.w3.org/2000/svg" xmlns:xlink="http://www.w3.org/1999/xlink" width="200px" height="200px" viewBox="0 0 200 200" version="1.1">
<defs>
<clipPath id="clip1">
  <path d="M 21.171875 77.539062 L 33.230469 77.539062 L 33.230469 89.597656 L 21.171875 89.597656 Z M 21.171875 77.539062 "/>
</clipPath>
<clipPath id="clip2">
  <path d="M 40.46875 77.539062 L 52.527344 77.539062 L 52.527344 89.601562 L 40.46875 89.601562 Z M 40.46875 77.539062 "/>
</clipPath>
<clipPath id="clip3">
  <path d="M 59.765625 77.539062 L 71.824219 77.539062 L 71.824219 89.597656 L 59.765625 89.597656 Z M 59.765625 77.539062 "/>
</clipPath>
</defs>
<g id="surface1">
<path style=" stroke:none;fill-rule:nonzero;fill:rgb(13.333333%,13.333333%,13.333333%);fill-opacity:1;" d="M 25.769531 98.261719 L 19.332031 105.949219 L 25.847656 105.949219 L 25.847656 107.554688 L 16.917969 107.554688 L 16.917969 106.269531 L 23.371094 98.578125 L 17.113281 98.578125 L 17.113281 96.976562 L 25.769531 96.976562 Z M 25.769531 98.261719 "/>
<path style=" stroke:none;fill-rule:nonzero;fill:rgb(13.333333%,13.333333%,13.333333%);fill-opacity:1;" d="M 42.011719 98.578125 L 36.242188 98.578125 L 36.242188 101.433594 L 41.40625 101.433594 L 41.40625 103.035156 L 36.242188 103.035156 L 36.242188 105.949219 L 42.195312 105.949219 L 42.195312 107.554688 L 34.457031 107.554688 L 34.457031 96.976562 L 42.011719 96.976562 Z M 42.011719 98.578125 "/>
<path style=" stroke:none;fill-rule:nonzero;fill:rgb(13.333333%,13.333333%,13.333333%);fill-opacity:1;" d="M 57.722656 107.554688 L 55.792969 104.351562 C 55.691406 104.359375 55.53125 104.363281 55.308594 104.363281 L 52.800781 104.363281 L 52.800781 107.554688 L 51.015625 107.554688 L 51.015625 96.976562 L 55.308594 96.976562 C 56.65625 96.976562 57.703125 97.292969 58.449219 97.921875 C 59.195312 98.550781 59.570312 99.441406 59.570312 100.589844 C 59.570312 101.433594 59.378906 102.148438 59.003906 102.734375 C 58.625 103.316406 58.082031 103.746094 57.378906 104.015625 L 59.75 107.554688 Z M 52.800781 102.765625 L 55.308594 102.765625 C 57.019531 102.765625 57.878906 102.054688 57.878906 100.632812 C 57.878906 99.265625 57.019531 98.578125 55.308594 98.578125 L 52.800781 98.578125 Z M 52.800781 102.765625 "/>
<path style=" stroke:none;fill-rule:nonzero;fill:rgb(13.333333%,13.333333%,13.333333%);fill-opacity:1;" d="M 69.328125 98.46875 C 70.40625 97.445312 71.734375 96.929688 73.316406 96.929688 C 74.898438 96.929688 76.230469 97.445312 77.304688 98.46875 C 78.382812 99.488281 78.921875 100.757812 78.921875 102.265625 C 78.921875 103.777344 78.382812 105.046875 77.304688 106.082031 C 76.230469 107.113281 74.898438 107.628906 73.316406 107.628906 C 71.734375 107.628906 70.40625 107.113281 69.328125 106.082031 C 68.25 105.046875 67.710938 103.777344 67.710938 102.265625 C 67.710938 100.757812 68.25 99.488281 69.328125 98.46875 Z M 73.332031 98.535156 C 72.285156 98.535156 71.386719 98.894531 70.640625 99.613281 C 69.898438 100.335938 69.527344 101.21875 69.527344 102.265625 C 69.527344 103.3125 69.902344 104.203125 70.652344 104.933594 C 71.402344 105.664062 72.292969 106.027344 73.332031 106.027344 C 74.367188 106.027344 75.253906 105.664062 75.988281 104.933594 C 76.726562 104.203125 77.09375 103.3125 77.09375 102.265625 C 77.09375 101.21875 76.726562 100.335938 75.988281 99.613281 C 75.253906 98.894531 74.367188 98.535156 73.332031 98.535156 Z M 73.332031 98.535156 "/>
<g clip-path="url(#clip1)" clip-rule="nonzero">
<path style=" stroke:none;fill-rule:nonzero;fill:rgb(100%,36.078431%,36.078431%);fill-opacity:1;" d="M 27.203125 77.539062 C 27.003906 77.539062 26.808594 77.550781 26.609375 77.570312 C 26.414062 77.589844 26.21875 77.617188 26.027344 77.65625 C 25.832031 77.695312 25.640625 77.742188 25.453125 77.800781 C 25.261719 77.855469 25.078125 77.921875 24.894531 78 C 24.710938 78.074219 24.535156 78.160156 24.359375 78.253906 C 24.1875 78.34375 24.015625 78.445312 23.851562 78.554688 C 23.6875 78.664062 23.53125 78.785156 23.378906 78.910156 C 23.222656 79.035156 23.078125 79.167969 22.9375 79.304688 C 22.800781 79.445312 22.667969 79.589844 22.542969 79.746094 C 22.414062 79.898438 22.296875 80.054688 22.1875 80.21875 C 22.078125 80.382812 21.976562 80.554688 21.882812 80.726562 C 21.792969 80.902344 21.707031 81.078125 21.632812 81.261719 C 21.554688 81.445312 21.488281 81.628906 21.433594 81.820312 C 21.375 82.007812 21.328125 82.199219 21.289062 82.394531 C 21.25 82.585938 21.222656 82.78125 21.203125 82.980469 C 21.183594 83.175781 21.171875 83.371094 21.171875 83.570312 C 21.171875 83.765625 21.183594 83.964844 21.203125 84.160156 C 21.222656 84.359375 21.25 84.554688 21.289062 84.746094 C 21.328125 84.941406 21.375 85.132812 21.433594 85.320312 C 21.488281 85.507812 21.554688 85.695312 21.632812 85.878906 C 21.707031 86.058594 21.792969 86.238281 21.882812 86.414062 C 21.976562 86.585938 22.078125 86.753906 22.1875 86.921875 C 22.296875 87.085938 22.414062 87.242188 22.542969 87.394531 C 22.667969 87.546875 22.800781 87.695312 22.9375 87.832031 C 23.078125 87.972656 23.222656 88.105469 23.378906 88.230469 C 23.53125 88.355469 23.6875 88.472656 23.851562 88.582031 C 24.015625 88.691406 24.1875 88.792969 24.359375 88.886719 C 24.535156 88.980469 24.710938 89.066406 24.894531 89.140625 C 25.078125 89.214844 25.261719 89.28125 25.453125 89.339844 C 25.640625 89.398438 25.832031 89.445312 26.027344 89.484375 C 26.21875 89.523438 26.414062 89.550781 26.609375 89.570312 C 26.808594 89.589844 27.003906 89.597656 27.203125 89.597656 C 27.398438 89.597656 27.597656 89.589844 27.792969 89.570312 C 27.992188 89.550781 28.183594 89.523438 28.378906 89.484375 C 28.570312 89.445312 28.765625 89.398438 28.953125 89.339844 C 29.140625 89.28125 29.328125 89.214844 29.507812 89.140625 C 29.691406 89.066406 29.871094 88.980469 30.046875 88.886719 C 30.21875 88.792969 30.386719 88.691406 30.550781 88.582031 C 30.714844 88.472656 30.875 88.355469 31.027344 88.230469 C 31.179688 88.105469 31.328125 87.972656 31.464844 87.832031 C 31.605469 87.695312 31.738281 87.546875 31.863281 87.394531 C 31.988281 87.242188 32.105469 87.085938 32.214844 86.921875 C 32.324219 86.753906 32.425781 86.585938 32.519531 86.414062 C 32.613281 86.238281 32.699219 86.058594 32.773438 85.878906 C 32.847656 85.695312 32.914062 85.507812 32.972656 85.320312 C 33.03125 85.132812 33.078125 84.941406 33.117188 84.746094 C 33.15625 84.554688 33.183594 84.359375 33.203125 84.160156 C 33.222656 83.964844 33.230469 83.765625 33.230469 83.570312 C 33.230469 83.371094 33.222656 83.175781 33.203125 82.980469 C 33.183594 82.78125 33.15625 82.585938 33.117188 82.394531 C 33.078125 82.199219 33.03125 82.007812 32.972656 81.820312 C 32.914062 81.628906 32.847656 81.445312 32.773438 81.261719 C 32.699219 81.078125 32.613281 80.902344 32.519531 80.726562 C 32.425781 80.554688 32.324219 80.382812 32.214844 80.21875 C 32.105469 80.054688 31.988281 79.898438 31.863281 79.746094 C 31.738281 79.589844 31.605469 79.445312 31.464844 79.304688 C 31.328125 79.167969 31.179688 79.035156 31.027344 78.910156 C 30.875 78.785156 30.714844 78.664062 30.550781 78.554688 C 30.386719 78.445312 30.21875 78.34375 30.046875 78.253906 C 29.871094 78.160156 29.691406 78.074219 29.507812 78 C 29.328125 77.921875 29.140625 77.855469 28.953125 77.800781 C 28.765625 77.742188 28.570312 77.695312 28.378906 77.65625 C 28.183594 77.617188 27.992188 77.589844 27.792969 77.570312 C 27.597656 77.550781 27.398438 77.539062 27.203125 77.539062 Z M 27.203125 77.539062 "/>
</g>
<g clip-path="url(#clip2)" clip-rule="nonzero">
<path style=" stroke:none;fill-rule:nonzero;fill:rgb(65.882353%,65.882353%,65.882353%);fill-opacity:1;" d="M 46.5 77.539062 C 46.300781 77.539062 46.105469 77.550781 45.90625 77.570312 C 45.710938 77.589844 45.515625 77.617188 45.320312 77.65625 C 45.128906 77.695312 44.9375 77.742188 44.746094 77.800781 C 44.558594 77.855469 44.375 77.921875 44.191406 78 C 44.007812 78.074219 43.832031 78.160156 43.65625 78.253906 C 43.480469 78.34375 43.3125 78.445312 43.148438 78.554688 C 42.984375 78.664062 42.824219 78.785156 42.671875 78.910156 C 42.519531 79.035156 42.375 79.167969 42.234375 79.304688 C 42.09375 79.445312 41.960938 79.589844 41.835938 79.746094 C 41.710938 79.898438 41.59375 80.054688 41.484375 80.21875 C 41.375 80.382812 41.273438 80.554688 41.179688 80.726562 C 41.085938 80.902344 41.003906 81.078125 40.929688 81.261719 C 40.851562 81.445312 40.785156 81.628906 40.726562 81.820312 C 40.671875 82.007812 40.621094 82.199219 40.585938 82.394531 C 40.546875 82.585938 40.515625 82.78125 40.496094 82.980469 C 40.476562 83.175781 40.46875 83.371094 40.46875 83.570312 C 40.46875 83.765625 40.476562 83.964844 40.496094 84.160156 C 40.515625 84.359375 40.546875 84.554688 40.585938 84.746094 C 40.621094 84.941406 40.671875 85.132812 40.726562 85.320312 C 40.785156 85.507812 40.851562 85.695312 40.929688 85.878906 C 41.003906 86.058594 41.085938 86.238281 41.179688 86.414062 C 41.273438 86.585938 41.375 86.753906 41.484375 86.921875 C 41.59375 87.085938 41.710938 87.242188 41.835938 87.394531 C 41.960938 87.546875 42.09375 87.695312 42.234375 87.832031 C 42.375 87.972656 42.519531 88.105469 42.671875 88.230469 C 42.824219 88.355469 42.984375 88.472656 43.148438 88.582031 C 43.3125 88.691406 43.480469 88.792969 43.65625 88.886719 C 43.832031 88.980469 44.007812 89.066406 44.191406 89.140625 C 44.375 89.214844 44.558594 89.28125 44.746094 89.339844 C 44.9375 89.398438 45.128906 89.445312 45.320312 89.484375 C 45.515625 89.523438 45.710938 89.550781 45.90625 89.570312 C 46.105469 89.589844 46.300781 89.601562 46.5 89.601562 C 46.695312 89.601562 46.894531 89.589844 47.089844 89.570312 C 47.285156 89.550781 47.480469 89.523438 47.675781 89.484375 C 47.867188 89.445312 48.058594 89.398438 48.25 89.339844 C 48.4375 89.28125 48.625 89.214844 48.804688 89.140625 C 48.988281 89.066406 49.167969 88.980469 49.339844 88.886719 C 49.515625 88.792969 49.683594 88.691406 49.847656 88.582031 C 50.011719 88.472656 50.171875 88.355469 50.324219 88.230469 C 50.476562 88.105469 50.621094 87.972656 50.761719 87.832031 C 50.902344 87.695312 51.035156 87.546875 51.160156 87.394531 C 51.285156 87.242188 51.402344 87.085938 51.511719 86.921875 C 51.621094 86.753906 51.722656 86.585938 51.816406 86.414062 C 51.910156 86.238281 51.992188 86.058594 52.070312 85.878906 C 52.144531 85.695312 52.210938 85.507812 52.269531 85.320312 C 52.324219 85.132812 52.375 84.941406 52.414062 84.746094 C 52.449219 84.554688 52.480469 84.359375 52.5 84.160156 C 52.519531 83.964844 52.527344 83.765625 52.527344 83.570312 C 52.527344 83.371094 52.519531 83.175781 52.5 82.980469 C 52.480469 82.78125 52.449219 82.585938 52.414062 82.394531 C 52.375 82.199219 52.324219 82.007812 52.269531 81.820312 C 52.210938 81.628906 52.144531 81.445312 52.070312 81.261719 C 51.992188 81.078125 51.910156 80.902344 51.816406 80.726562 C 51.722656 80.554688 51.621094 80.382812 51.511719 80.21875 C 51.402344 80.054688 51.285156 79.898438 51.160156 79.746094 C 51.035156 79.589844 50.902344 79.445312 50.761719 79.304688 C 50.621094 79.167969 50.476562 79.035156 50.324219 78.910156 C 50.171875 78.785156 50.011719 78.664062 49.847656 78.554688 C 49.683594 78.445312 49.515625 78.34375 49.339844 78.253906 C 49.167969 78.160156 48.988281 78.074219 48.804688 78 C 48.625 77.921875 48.4375 77.855469 48.25 77.800781 C 48.058594 77.742188 47.867188 77.695312 47.675781 77.65625 C 47.480469 77.617188 47.285156 77.589844 47.089844 77.570312 C 46.894531 77.550781 46.695312 77.539062 46.5 77.539062 Z M 46.5 77.539062 "/>
</g>
<g clip-path="url(#clip3)" clip-rule="nonzero">
<path style=" stroke:none;fill-rule:nonzero;fill:rgb(100%,74.117647%,29.019608%);fill-opacity:1;" d="M 65.792969 77.539062 C 65.597656 77.539062 65.398438 77.550781 65.203125 77.570312 C 65.007812 77.589844 64.8125 77.617188 64.617188 77.65625 C 64.425781 77.695312 64.234375 77.742188 64.042969 77.800781 C 63.855469 77.855469 63.667969 77.921875 63.488281 78 C 63.304688 78.074219 63.125 78.160156 62.953125 78.253906 C 62.777344 78.34375 62.609375 78.445312 62.445312 78.554688 C 62.28125 78.664062 62.121094 78.785156 61.96875 78.910156 C 61.816406 79.035156 61.671875 79.167969 61.53125 79.304688 C 61.390625 79.445312 61.257812 79.589844 61.132812 79.746094 C 61.007812 79.898438 60.890625 80.054688 60.78125 80.21875 C 60.671875 80.382812 60.570312 80.554688 60.476562 80.726562 C 60.382812 80.902344 60.300781 81.078125 60.222656 81.261719 C 60.148438 81.445312 60.082031 81.628906 60.023438 81.820312 C 59.96875 82.007812 59.917969 82.199219 59.878906 82.394531 C 59.84375 82.585938 59.8125 82.78125 59.792969 82.980469 C 59.773438 83.175781 59.765625 83.371094 59.765625 83.570312 C 59.765625 83.765625 59.773438 83.964844 59.792969 84.160156 C 59.8125 84.359375 59.84375 84.554688 59.878906 84.746094 C 59.917969 84.941406 59.96875 85.132812 60.023438 85.320312 C 60.082031 85.507812 60.148438 85.695312 60.222656 85.878906 C 60.300781 86.058594 60.382812 86.238281 60.476562 86.414062 C 60.570312 86.585938 60.671875 86.753906 60.78125 86.921875 C 60.890625 87.085938 61.007812 87.242188 61.132812 87.394531 C 61.257812 87.546875 61.390625 87.695312 61.53125 87.832031 C 61.671875 87.972656 61.816406 88.105469 61.96875 88.230469 C 62.121094 88.355469 62.28125 88.472656 62.445312 88.582031 C 62.609375 88.691406 62.777344 88.792969 62.953125 88.886719 C 63.125 88.980469 63.304688 89.066406 63.488281 89.140625 C 63.667969 89.214844 63.855469 89.28125 64.042969 89.339844 C 64.234375 89.398438 64.425781 89.445312 64.617188 89.484375 C 64.8125 89.523438 65.007812 89.550781 65.203125 89.570312 C 65.398438 89.589844 65.597656 89.597656 65.792969 89.597656 C 65.992188 89.597656 66.1875 89.589844 66.386719 89.570312 C 66.582031 89.550781 66.777344 89.523438 66.972656 89.484375 C 67.164062 89.445312 67.355469 89.398438 67.546875 89.339844 C 67.734375 89.28125 67.917969 89.214844 68.101562 89.140625 C 68.285156 89.066406 68.460938 88.980469 68.636719 88.886719 C 68.8125 88.792969 68.980469 88.691406 69.144531 88.582031 C 69.308594 88.472656 69.46875 88.355469 69.621094 88.230469 C 69.773438 88.105469 69.917969 87.972656 70.058594 87.832031 C 70.199219 87.695312 70.332031 87.546875 70.457031 87.394531 C 70.582031 87.242188 70.699219 87.085938 70.808594 86.921875 C 70.917969 86.753906 71.019531 86.585938 71.113281 86.414062 C 71.207031 86.238281 71.289062 86.058594 71.367188 85.878906 C 71.441406 85.695312 71.507812 85.507812 71.566406 85.320312 C 71.621094 85.132812 71.671875 84.941406 71.707031 84.746094 C 71.746094 84.554688 71.777344 84.359375 71.796875 84.160156 C 71.816406 83.964844 71.824219 83.765625 71.824219 83.570312 C 71.824219 83.371094 71.816406 83.175781 71.796875 82.980469 C 71.777344 82.78125 71.746094 82.585938 71.707031 82.394531 C 71.671875 82.199219 71.621094 82.007812 71.566406 81.820312 C 71.507812 81.628906 71.441406 81.445312 71.367188 81.261719 C 71.289062 81.078125 71.207031 80.902344 71.113281 80.726562 C 71.019531 80.554688 70.917969 80.382812 70.808594 80.21875 C 70.699219 80.054688 70.582031 79.898438 70.457031 79.746094 C 70.332031 79.589844 70.199219 79.445312 70.058594 79.304688 C 69.917969 79.167969 69.773438 79.035156 69.621094 78.910156 C 69.46875 78.785156 69.308594 78.664062 69.144531 78.554688 C 68.980469 78.445312 68.8125 78.34375 68.636719 78.253906 C 68.460938 78.160156 68.285156 78.074219 68.101562 78 C 67.917969 77.921875 67.734375 77.855469 67.546875 77.800781 C 67.355469 77.742188 67.164062 77.695312 66.972656 77.65625 C 66.777344 77.617188 66.582031 77.589844 66.386719 77.570312 C 66.1875 77.550781 65.992188 77.539062 65.792969 77.539062 Z M 65.792969 77.539062 "/>
</g>
</g>
</svg>
