<svg xmlns="http://www.w3.org/2000/svg" xmlns:xlink="http://www.w3.org/1999/xlink" width="986" zoomAndPan="magnify" viewBox="0 0 739.5 337.499995" height="450" preserveAspectRatio="xMidYMid meet" version="1.0"><defs><g/><clipPath id="e57ab74f40"><path d="M 102.34375 75.027344 L 170.121094 75.027344 L 170.121094 142.808594 L 102.34375 142.808594 Z M 102.34375 75.027344 " clip-rule="nonzero"/></clipPath><clipPath id="52bb611574"><path d="M 136.234375 75.027344 C 134.007812 75.027344 131.804688 75.246094 129.621094 75.679688 C 127.4375 76.113281 125.320312 76.753906 123.261719 77.605469 C 121.207031 78.457031 119.253906 79.503906 117.40625 80.738281 C 115.554688 81.976562 113.84375 83.378906 112.269531 84.953125 C 110.695312 86.527344 109.289062 88.238281 108.054688 90.089844 C 106.816406 91.9375 105.773438 93.890625 104.921875 95.949219 C 104.070312 98.003906 103.429688 100.125 102.992188 102.304688 C 102.558594 104.488281 102.34375 106.691406 102.34375 108.917969 C 102.34375 111.144531 102.558594 113.347656 102.992188 115.527344 C 103.429688 117.710938 104.070312 119.832031 104.921875 121.886719 C 105.773438 123.941406 106.816406 125.894531 108.054688 127.746094 C 109.289062 129.597656 110.695312 131.308594 112.269531 132.882812 C 113.84375 134.453125 115.554688 135.859375 117.40625 137.097656 C 119.253906 138.332031 121.207031 139.375 123.261719 140.226562 C 125.320312 141.078125 127.4375 141.722656 129.621094 142.15625 C 131.804688 142.589844 134.007812 142.808594 136.234375 142.808594 C 138.457031 142.808594 140.660156 142.589844 142.84375 142.15625 C 145.027344 141.722656 147.144531 141.078125 149.203125 140.226562 C 151.257812 139.375 153.210938 138.332031 155.0625 137.097656 C 156.910156 135.859375 158.625 134.453125 160.195312 132.882812 C 161.769531 131.308594 163.175781 129.597656 164.410156 127.746094 C 165.648438 125.894531 166.691406 123.941406 167.542969 121.886719 C 168.394531 119.832031 169.039062 117.710938 169.472656 115.527344 C 169.90625 113.347656 170.121094 111.144531 170.121094 108.917969 C 170.121094 106.691406 169.90625 104.488281 169.472656 102.304688 C 169.039062 100.125 168.394531 98.003906 167.542969 95.949219 C 166.691406 93.890625 165.648438 91.9375 164.410156 90.089844 C 163.175781 88.238281 161.769531 86.527344 160.195312 84.953125 C 158.625 83.378906 156.910156 81.976562 155.0625 80.738281 C 153.210938 79.503906 151.257812 78.457031 149.203125 77.605469 C 147.144531 76.753906 145.027344 76.113281 142.84375 75.679688 C 140.660156 75.246094 138.457031 75.027344 136.234375 75.027344 Z M 136.234375 75.027344 " clip-rule="nonzero"/></clipPath><clipPath id="17eb38a87a"><path d="M 210.796875 75.027344 L 278.578125 75.027344 L 278.578125 142.808594 L 210.796875 142.808594 Z M 210.796875 75.027344 " clip-rule="nonzero"/></clipPath><clipPath id="51f750ab1a"><path d="M 244.6875 75.027344 C 242.460938 75.027344 240.257812 75.246094 238.074219 75.679688 C 235.890625 76.113281 233.773438 76.753906 231.714844 77.605469 C 229.660156 78.457031 227.707031 79.503906 225.859375 80.738281 C 224.007812 81.976562 222.296875 83.378906 220.722656 84.953125 C 219.148438 86.527344 217.742188 88.238281 216.507812 90.089844 C 215.269531 91.9375 214.226562 93.890625 213.375 95.949219 C 212.523438 98.003906 211.882812 100.125 211.445312 102.304688 C 211.011719 104.488281 210.796875 106.691406 210.796875 108.917969 C 210.796875 111.144531 211.011719 113.347656 211.445312 115.527344 C 211.882812 117.710938 212.523438 119.832031 213.375 121.886719 C 214.226562 123.941406 215.269531 125.894531 216.507812 127.746094 C 217.742188 129.597656 219.148438 131.308594 220.722656 132.882812 C 222.296875 134.453125 224.007812 135.859375 225.859375 137.097656 C 227.707031 138.332031 229.660156 139.375 231.714844 140.226562 C 233.773438 141.078125 235.890625 141.722656 238.074219 142.15625 C 240.257812 142.589844 242.460938 142.808594 244.6875 142.808594 C 246.910156 142.808594 249.113281 142.589844 251.296875 142.15625 C 253.480469 141.722656 255.597656 141.078125 257.65625 140.226562 C 259.710938 139.375 261.664062 138.332031 263.515625 137.097656 C 265.363281 135.859375 267.078125 134.453125 268.648438 132.882812 C 270.222656 131.308594 271.628906 129.597656 272.863281 127.746094 C 274.101562 125.894531 275.144531 123.941406 275.996094 121.886719 C 276.847656 119.832031 277.492188 117.710938 277.925781 115.527344 C 278.359375 113.347656 278.578125 111.144531 278.578125 108.917969 C 278.578125 106.691406 278.359375 104.488281 277.925781 102.304688 C 277.492188 100.125 276.847656 98.003906 275.996094 95.949219 C 275.144531 93.890625 274.101562 91.9375 272.863281 90.089844 C 271.628906 88.238281 270.222656 86.527344 268.648438 84.953125 C 267.078125 83.378906 265.363281 81.976562 263.515625 80.738281 C 261.664062 79.503906 259.710938 78.457031 257.65625 77.605469 C 255.597656 76.753906 253.480469 76.113281 251.296875 75.679688 C 249.113281 75.246094 246.910156 75.027344 244.6875 75.027344 Z M 244.6875 75.027344 " clip-rule="nonzero"/></clipPath><clipPath id="e7d2e6863b"><path d="M 319.25 75.027344 L 387.027344 75.027344 L 387.027344 142.808594 L 319.25 142.808594 Z M 319.25 75.027344 " clip-rule="nonzero"/></clipPath><clipPath id="7cb0cd82ee"><path d="M 353.140625 75.027344 C 350.914062 75.027344 348.710938 75.246094 346.527344 75.679688 C 344.34375 76.113281 342.226562 76.753906 340.167969 77.605469 C 338.113281 78.457031 336.160156 79.503906 334.3125 80.738281 C 332.460938 81.976562 330.75 83.378906 329.175781 84.953125 C 327.601562 86.527344 326.195312 88.238281 324.960938 90.089844 C 323.722656 91.9375 322.679688 93.890625 321.828125 95.949219 C 320.976562 98.003906 320.335938 100.125 319.898438 102.304688 C 319.464844 104.488281 319.25 106.691406 319.25 108.917969 C 319.25 111.144531 319.464844 113.347656 319.898438 115.527344 C 320.335938 117.710938 320.976562 119.832031 321.828125 121.886719 C 322.679688 123.941406 323.722656 125.894531 324.960938 127.746094 C 326.195312 129.597656 327.601562 131.308594 329.175781 132.882812 C 330.75 134.453125 332.460938 135.859375 334.3125 137.097656 C 336.160156 138.332031 338.113281 139.375 340.167969 140.226562 C 342.226562 141.078125 344.34375 141.722656 346.527344 142.15625 C 348.710938 142.589844 350.914062 142.808594 353.140625 142.808594 C 355.363281 142.808594 357.566406 142.589844 359.75 142.15625 C 361.933594 141.722656 364.050781 141.078125 366.109375 140.226562 C 368.164062 139.375 370.117188 138.332031 371.96875 137.097656 C 373.816406 135.859375 375.53125 134.453125 377.101562 132.882812 C 378.675781 131.308594 380.082031 129.597656 381.316406 127.746094 C 382.554688 125.894531 383.597656 123.941406 384.449219 121.886719 C 385.300781 119.832031 385.945312 117.710938 386.378906 115.527344 C 386.8125 113.347656 387.027344 111.144531 387.027344 108.917969 C 387.027344 106.691406 386.8125 104.488281 386.378906 102.304688 C 385.945312 100.125 385.300781 98.003906 384.449219 95.949219 C 383.597656 93.890625 382.554688 91.9375 381.316406 90.089844 C 380.082031 88.238281 378.675781 86.527344 377.101562 84.953125 C 375.53125 83.378906 373.816406 81.976562 371.96875 80.738281 C 370.117188 79.503906 368.164062 78.457031 366.109375 77.605469 C 364.050781 76.753906 361.933594 76.113281 359.75 75.679688 C 357.566406 75.246094 355.363281 75.027344 353.140625 75.027344 Z M 353.140625 75.027344 " clip-rule="nonzero"/></clipPath></defs><g fill="#222222" fill-opacity="1"><g transform="translate(75.28744, 243.716255)"><g><path d="M 52.90625 -52.234375 L 16.734375 -9 L 53.328125 -9 L 53.328125 0 L 3.140625 0 L 3.140625 -7.21875 L 39.40625 -50.4375 L 4.25 -50.4375 L 4.25 -59.4375 L 52.90625 -59.4375 Z M 52.90625 -52.234375 "/></g></g></g><g fill="#222222" fill-opacity="1"><g transform="translate(169.203794, 243.716255)"><g><path d="M 50.28125 -50.4375 L 17.828125 -50.4375 L 17.828125 -34.390625 L 46.875 -34.390625 L 46.875 -25.390625 L 17.828125 -25.390625 L 17.828125 -9 L 51.296875 -9 L 51.296875 0 L 7.8125 0 L 7.8125 -59.4375 L 50.28125 -59.4375 Z M 50.28125 -50.4375 "/></g></g></g><g fill="#222222" fill-opacity="1"><g transform="translate(262.271108, 243.716255)"><g><path d="M 45.515625 0 L 34.640625 -18 C 34.078125 -17.945312 33.175781 -17.921875 31.9375 -17.921875 L 17.828125 -17.921875 L 17.828125 0 L 7.8125 0 L 7.8125 -59.4375 L 31.9375 -59.4375 C 39.519531 -59.4375 45.40625 -57.664062 49.59375 -54.125 C 53.78125 -50.59375 55.875 -45.601562 55.875 -39.15625 C 55.875 -34.394531 54.8125 -30.375 52.6875 -27.09375 C 50.570312 -23.8125 47.53125 -21.40625 43.5625 -19.875 L 56.890625 0 Z M 17.828125 -26.921875 L 31.9375 -26.921875 C 41.5625 -26.921875 46.375 -30.910156 46.375 -38.890625 C 46.375 -46.585938 41.5625 -50.4375 31.9375 -50.4375 L 17.828125 -50.4375 Z M 17.828125 -26.921875 "/></g></g></g><g fill="#222222" fill-opacity="1"><g transform="translate(361.027027, 243.716255)"><g><path d="M 11.96875 -51.078125 C 18.03125 -56.828125 25.503906 -59.703125 34.390625 -59.703125 C 43.273438 -59.703125 50.75 -56.828125 56.8125 -51.078125 C 62.875 -45.328125 65.90625 -38.207031 65.90625 -29.71875 C 65.90625 -21.226562 62.875 -14.082031 56.8125 -8.28125 C 50.75 -2.476562 43.273438 0.421875 34.390625 0.421875 C 25.503906 0.421875 18.03125 -2.476562 11.96875 -8.28125 C 5.914062 -14.082031 2.890625 -21.226562 2.890625 -29.71875 C 2.890625 -38.207031 5.914062 -45.328125 11.96875 -51.078125 Z M 34.484375 -50.703125 C 28.585938 -50.703125 23.546875 -48.675781 19.359375 -44.625 C 15.171875 -40.570312 13.078125 -35.601562 13.078125 -29.71875 C 13.078125 -23.832031 15.1875 -18.835938 19.40625 -14.734375 C 23.625 -10.628906 28.644531 -8.578125 34.46875 -8.578125 C 40.300781 -8.578125 45.285156 -10.628906 49.421875 -14.734375 C 53.554688 -18.835938 55.625 -23.832031 55.625 -29.71875 C 55.625 -35.601562 53.554688 -40.570312 49.421875 -44.625 C 45.285156 -48.675781 40.304688 -50.703125 34.484375 -50.703125 Z M 34.484375 -50.703125 "/></g></g></g><g clip-path="url(#e57ab74f40)"><g clip-path="url(#52bb611574)"><path fill="#ff5c5c" d="M 102.34375 75.027344 L 170.121094 75.027344 L 170.121094 142.808594 L 102.34375 142.808594 Z M 102.34375 75.027344 " fill-opacity="1" fill-rule="nonzero"/></g></g><g clip-path="url(#17eb38a87a)"><g clip-path="url(#51f750ab1a)"><path fill="#a8a8a8" d="M 210.796875 75.027344 L 278.578125 75.027344 L 278.578125 142.808594 L 210.796875 142.808594 Z M 210.796875 75.027344 " fill-opacity="1" fill-rule="nonzero"/></g></g><g clip-path="url(#e7d2e6863b)"><g clip-path="url(#7cb0cd82ee)"><path fill="#ffbd4a" d="M 319.25 75.027344 L 387.027344 75.027344 L 387.027344 142.808594 L 319.25 142.808594 Z M 319.25 75.027344 " fill-opacity="1" fill-rule="nonzero"/></g></g></svg>